# Blender v2.73 (sub 0) OBJ File: 'asteroid1.blend'
# www.blender.org
mtllib asteroid0.mtl
o Icosphere
v 0.000000 -2.685990 0.000000
v 1.943602 -1.201227 1.412093
v -0.742375 -1.201228 2.284835
v -2.402420 -1.201217 0.000000
v 0.742375 1.201228 2.284835
v -1.943602 1.201227 1.412093
v -1.943602 1.201227 -1.412093
v 2.402420 1.201217 0.000000
v 0.000000 2.685990 0.000000
v 1.142413 -2.284849 0.830002
v 0.706063 -1.412126 2.172997
v 1.142413 -2.284849 -0.830002
v -1.848470 -1.412122 -1.342987
v 0.706063 -1.412126 -2.172997
v 2.554532 0.000000 0.830005
v 1.578786 0.000000 2.173011
v -2.554532 0.000000 0.830005
v -2.554532 0.000000 -0.830005
v 1.578786 0.000000 -2.173011
v 0.000000 0.000000 -2.685990
v 1.848470 1.412122 -1.342987
v 1.412105 2.284842 0.000000
vt 0.247753 0.151260
vt 0.314052 0.229777
vt 0.209377 0.201093
vt 0.075845 0.000102
vt 0.310138 0.059266
vt 0.257538 0.345694
vt 0.362214 0.269325
vt 0.337292 0.348013
vt 0.432003 0.326391
vt 0.597493 0.307186
vt 0.430173 0.498368
vt 0.134857 0.250580
vt 0.165312 0.145062
vt 0.180867 0.758274
vt 0.265535 0.771500
vt 0.286921 0.863566
vt 0.333029 0.805113
vt 0.283220 0.999898
vt 0.000102 0.845679
vt 0.054981 0.599204
vt 0.000102 0.352376
vt 0.273360 0.599000
vt 0.310093 0.599204
vt 0.443849 0.780952
vt 0.434844 0.631703
vt 0.451042 0.000102
vt 0.359666 0.120710
vt 0.363001 0.197298
vn -0.523900 -0.847700 -0.083000
vn -0.565900 -0.042400 -0.823400
vn -0.083000 -0.847700 0.523900
vn 0.802600 -0.125600 0.583100
vn -0.992100 -0.125600 0.000000
vn 0.240800 0.847700 -0.472600
vn 0.724000 0.661700 -0.194700
vn -0.232500 0.525500 -0.818400
vn -0.607100 0.794700 0.000000
vn 0.303500 -0.187600 -0.934200
vn 0.240800 0.847700 0.472600
vn 0.688200 0.525700 0.500000
vn 0.835400 -0.516300 -0.188700
vn 0.056900 0.647900 -0.759600
vn 0.070600 -0.043600 0.996600
vn 0.170700 0.833500 -0.525500
vn 0.752300 0.482000 0.449100
vn 0.564900 0.516300 0.643700
vn -0.136100 -0.805500 -0.576700
vn -0.889700 -0.330400 -0.315100
vn -0.642900 -0.043600 0.764700
vn 0.664100 0.706900 -0.243600
vn -0.162500 -0.850700 -0.500000
vn 0.534600 -0.330400 0.777900
vn -0.276400 -0.447200 -0.850600
vn 0.083000 0.847700 -0.523900
vn 0.331300 -0.943500 0.000000
vn -0.347600 -0.562400 0.750200
vn 0.471300 -0.661700 0.583100
vn -0.891300 0.453300 0.000000
vn 0.187600 -0.794700 -0.577300
vn 0.819900 -0.506700 -0.266400
vn 0.903300 -0.160500 -0.397800
vn 0.951100 0.000000 -0.309000
vn 0.873400 -0.226600 -0.431000
vn 0.850600 -0.525700 0.000000
vn -0.642900 -0.043600 -0.764700
usemtl None
s off
f 13/1/1 1/2/1 4/3/1
f 7/4/2 20/5/2 13/1/2
f 3/6/3 10/7/3 11/8/3
f 2/9/4 15/10/4 16/11/4
f 4/3/5 17/12/5 18/13/5
f 9/14/6 22/15/6 21/16/6
f 8/17/7 21/16/7 22/15/7
f 19/18/8 9/14/8 21/16/8
f 7/19/9 6/20/9 9/14/9
f 6/21/10 5/22/10 3/6/10
f 22/15/11 9/14/11 5/23/11
f 15/24/12 22/15/12 16/25/12
f 2/9/13 10/7/13 15/10/13
f 19/18/14 7/19/14 9/14/14
f 16/11/15 5/22/15 3/6/15
f 7/4/16 19/26/16 20/5/16
f 5/23/17 16/25/17 22/15/17
f 15/24/18 8/17/18 22/15/18
f 19/26/10 14/27/10 20/5/10
f 1/2/19 13/1/19 12/28/19
f 13/1/20 4/3/20 18/13/20
f 3/6/21 6/21/21 17/12/21
f 17/12/22 3/6/22 1/2/22
f 14/27/23 12/28/23 13/1/23
f 11/8/15 16/11/15 3/6/15
f 11/8/24 2/9/24 16/11/24
f 20/5/25 14/27/25 13/1/25
f 10/7/26 1/2/26 3/6/26
f 10/7/27 1/2/27 12/28/27
f 17/12/28 4/3/28 1/2/28
f 10/7/29 2/9/29 11/8/29
f 18/13/30 17/12/30 6/21/30
f 6/20/31 9/14/31 5/23/31
f 14/27/32 19/26/32 15/10/32
f 8/17/33 15/24/33 21/16/33
f 19/18/34 21/16/34 15/24/34
f 14/27/35 15/10/35 12/28/35
f 10/7/36 12/28/36 15/10/36
f 18/13/37 7/4/37 13/1/37
f 7/4/30 18/13/30 6/21/30
