# Blender v2.73 (sub 0) OBJ File: ''
# www.blender.org
mtllib bullet2.mtl
o Cylinder
v 0.000000 -0.050000 -0.950000
v 0.000000 0.050000 -0.950000
v 0.009755 -0.050000 -0.931746
v -0.011902 -0.009167 -1.468585
v 0.019134 -0.050000 -0.877686
v 0.019134 0.050000 -0.877686
v 0.027779 -0.050000 -0.789896
v 0.027779 0.050000 -0.789896
v 0.035355 -0.050000 -0.671751
v 0.035355 0.050000 -0.671751
v 0.041573 -0.050000 -0.527792
v 0.041573 0.050000 -0.527792
v 0.046194 -0.050000 -0.363549
v 0.046194 0.050000 -0.363549
v 0.049039 -0.050000 -0.185336
v 0.049039 0.050000 -0.185336
v 0.050000 -0.050000 -0.000000
v 0.050000 0.050000 -0.000000
v 0.049039 -0.050000 0.185336
v 0.049039 0.050000 0.185336
v 0.046194 -0.050000 0.363549
v 0.046194 0.050000 0.363549
v 0.041573 -0.050000 0.527792
v 0.041573 0.050000 0.527792
v 0.035355 -0.050000 0.671751
v 0.035355 0.050000 0.671751
v 0.027779 -0.050000 0.789896
v 0.027779 0.050000 0.789896
v 0.019134 -0.050000 0.877686
v 0.019134 0.050000 0.877686
v 0.009755 -0.050000 0.931746
v 0.009755 0.050000 0.931746
v -0.000000 -0.050000 0.950000
v 0.021495 -0.020796 1.300220
v -0.009755 -0.050000 0.931746
v -0.009755 0.050000 0.931746
v -0.019134 -0.050000 0.877685
v -0.019134 0.050000 0.877685
v -0.027779 -0.050000 0.789896
v -0.027779 0.050000 0.789896
v -0.035355 -0.050000 0.671751
v -0.035355 0.050000 0.671751
v -0.041574 -0.050000 0.527791
v -0.041574 0.050000 0.527791
v -0.046194 -0.050000 0.363549
v -0.046194 0.050000 0.363549
v -0.049039 -0.050000 0.185335
v -0.049039 0.050000 0.185335
v -0.050000 -0.050000 -0.000001
v -0.050000 0.050000 -0.000001
v -0.049039 -0.050000 -0.185337
v -0.049039 0.050000 -0.185337
v -0.046194 -0.050000 -0.363550
v -0.046194 0.050000 -0.363550
v -0.041573 -0.050000 -0.527793
v -0.041573 0.050000 -0.527793
v -0.035355 -0.050000 -0.671752
v -0.035355 0.050000 -0.671752
v -0.027778 -0.050000 -0.789897
v -0.027778 0.050000 -0.789897
v -0.019134 -0.050000 -0.877686
v -0.019134 0.050000 -0.877686
v -0.009754 -0.050000 -0.931746
v -0.009754 0.050000 -0.931746
vt 0.922423 0.385347
vt 0.922423 0.769311
vt 0.884788 0.769311
vt 0.960981 0.385347
vt 0.960980 0.769311
vt 0.923345 0.769311
vt 0.806751 0.769311
vt 0.769116 0.769311
vt 0.769116 0.385347
vt 0.845309 0.384425
vt 0.807674 0.384425
vt 0.807674 0.000461
vt 0.691077 0.384425
vt 0.653442 0.384425
vt 0.653443 0.000461
vt 0.691077 0.769311
vt 0.653442 0.769311
vt 0.653442 0.385347
vt 0.652518 0.384425
vt 0.614883 0.384425
vt 0.614884 0.000461
vt 0.498264 0.384425
vt 0.460629 0.384425
vt 0.460637 0.000461
vt 0.536837 0.769312
vt 0.499201 0.769312
vt 0.499201 0.385348
vt 0.806752 0.384425
vt 0.769117 0.384425
vt 0.769117 0.000461
vt 0.845308 0.769311
vt 0.807673 0.769311
vt 0.807673 0.385347
vt 0.729635 0.384425
vt 0.692000 0.384425
vt 0.692001 0.000461
vt 0.768193 0.384425
vt 0.730558 0.384425
vt 0.730559 0.000461
vt 0.652518 0.769311
vt 0.614883 0.769311
vt 0.614883 0.385347
vt 0.536830 0.384426
vt 0.499195 0.384425
vt 0.499201 0.000461
vt 0.459699 0.384426
vt 0.422064 0.384425
vt 0.422072 0.000461
vt 0.421142 0.000462
vt 0.421134 0.384426
vt 0.383499 0.384425
vt 0.575394 0.384426
vt 0.537759 0.384425
vt 0.537766 0.000461
vt 0.613958 0.384425
vt 0.576323 0.384425
vt 0.576325 0.000461
vt 0.729635 0.769311
vt 0.692000 0.769311
vt 0.692001 0.385347
vt 0.883867 0.384425
vt 0.846231 0.384425
vt 0.846231 0.000461
vt 0.613961 0.769311
vt 0.576325 0.769311
vt 0.576325 0.385347
vt 0.883866 0.769311
vt 0.846231 0.769311
vt 0.846231 0.385347
vt 0.575394 0.769312
vt 0.537759 0.769312
vt 0.537759 0.385348
vt 0.459692 0.769312
vt 0.422057 0.769312
vt 0.422056 0.385348
vt 0.960981 0.384425
vt 0.923346 0.384425
vt 0.923346 0.000461
vt 0.922424 0.384425
vt 0.884789 0.384425
vt 0.884789 0.000461
vt 0.999539 0.384425
vt 0.961904 0.384425
vt 0.961904 0.000461
vt 0.421134 0.769312
vt 0.383499 0.769312
vt 0.383499 0.385348
vt 0.768193 0.769311
vt 0.730558 0.769311
vt 0.730558 0.385347
vt 0.313311 0.426152
vt 0.022206 0.665056
vt 0.282018 0.405243
vt 0.999538 0.769311
vt 0.961903 0.769311
vt 0.961903 0.385347
vt 0.498272 0.769311
vt 0.460637 0.769311
vt 0.460637 0.385348
vt 0.382577 0.172701
vt 0.135789 0.375234
vt 0.375235 0.135789
vt 0.884788 0.385347
vt 0.923345 0.385347
vt 0.806751 0.385347
vt 0.845309 0.000461
vt 0.691078 0.000461
vt 0.691077 0.385347
vt 0.652519 0.000461
vt 0.498272 0.000462
vt 0.536837 0.385348
vt 0.806752 0.000461
vt 0.845308 0.385347
vt 0.729636 0.000461
vt 0.768194 0.000461
vt 0.652518 0.385347
vt 0.536837 0.000462
vt 0.459707 0.000462
vt 0.383507 0.000461
vt 0.575401 0.000462
vt 0.613961 0.000461
vt 0.729636 0.385347
vt 0.883867 0.000461
vt 0.613961 0.385347
vt 0.883866 0.385347
vt 0.575394 0.385348
vt 0.459692 0.385348
vt 0.960981 0.000461
vt 0.922424 0.000461
vt 0.999539 0.000461
vt 0.421134 0.385348
vt 0.768194 0.385347
vt 0.210337 0.765614
vt 0.375234 0.630286
vt 0.360832 0.665056
vt 0.339923 0.696349
vt 0.313311 0.722961
vt 0.282019 0.743869
vt 0.247248 0.758272
vt 0.172701 0.765614
vt 0.375234 0.518826
vt 0.382576 0.555739
vt 0.101019 0.743869
vt 0.339923 0.452764
vt 0.069726 0.722960
vt 0.043114 0.696348
vt 0.007803 0.630286
vt 0.210336 0.383498
vt 0.000461 0.593373
vt 0.000461 0.555738
vt 0.135789 0.390841
vt 0.007803 0.518826
vt 0.022206 0.484056
vt 0.043115 0.452764
vt 0.069727 0.426152
vt 0.101019 0.405243
vt 0.247248 0.390841
vt 0.360832 0.484056
vt 0.135789 0.758271
vt 0.382576 0.593374
vt 0.172702 0.383498
vt 0.999538 0.385347
vt 0.498272 0.385348
vt 0.101018 0.022206
vt 0.043114 0.069727
vt 0.069726 0.043115
vt 0.135789 0.007804
vt 0.007803 0.135790
vt 0.022205 0.101020
vt 0.210336 0.000461
vt 0.000461 0.210336
vt 0.000461 0.172702
vt 0.282018 0.022205
vt 0.022205 0.282018
vt 0.007803 0.247248
vt 0.339923 0.069726
vt 0.069726 0.339922
vt 0.043114 0.313310
vt 0.101018 0.360831
vt 0.382577 0.210336
vt 0.210336 0.382576
vt 0.172701 0.382576
vt 0.360832 0.282018
vt 0.282018 0.360832
vt 0.247248 0.375234
vt 0.339923 0.313310
vt 0.313311 0.339922
vt 0.375234 0.247248
vt 0.360832 0.101019
vt 0.313311 0.043114
vt 0.247248 0.007803
vt 0.172701 0.000461
vn -0.999700 0.000000 0.022900
vn 0.996600 -0.068900 -0.045400
vn 0.995200 0.000000 -0.098000
vn 0.997900 0.000000 -0.064000
vn 0.999100 0.000000 -0.043200
vn 0.999600 0.000000 -0.028100
vn 0.999900 0.000000 -0.016000
vn 1.000000 0.000000 -0.005200
vn 1.000000 0.000000 0.005200
vn 0.999900 0.000000 0.016000
vn 0.999600 0.000000 0.028100
vn 0.999100 0.000000 0.043200
vn 0.997900 0.000000 0.064000
vn 0.995200 0.000000 0.098000
vn 0.985300 0.000000 0.170900
vn 0.993000 -0.106400 -0.052100
vn -0.994100 -0.084500 0.068100
vn -0.985300 0.000000 0.170900
vn -0.995200 0.000000 0.098000
vn -0.997900 0.000000 0.064000
vn -0.999100 0.000000 0.043200
vn -0.999600 0.000000 0.028100
vn -0.999900 0.000000 0.016000
vn -1.000000 0.000000 0.005200
vn -1.000000 0.000000 -0.005200
vn -0.999900 0.000000 -0.016000
vn -0.999600 0.000000 -0.028100
vn -0.999100 0.000000 -0.043200
vn -0.997900 0.000000 -0.064000
vn -0.995200 0.000000 -0.098000
vn 0.000000 1.000000 0.000000
vn -0.882000 0.000000 -0.471300
vn -0.985300 0.000000 -0.170900
vn 0.000000 -1.000000 0.000000
vn 0.151700 -0.985100 -0.081000
vn 0.985300 0.000000 -0.170900
vn 0.882000 0.000000 0.471300
vn -0.882000 0.000000 0.471300
vn 0.424300 0.898600 -0.112300
vn 0.000000 0.982000 0.188700
usemtl None
s off
f 1/1/1 2/2/1 4/3/1
f 3/4/2 4/5/2 6/6/2
f 6/7/3 8/8/3 7/9/3
f 8/10/4 10/11/4 9/12/4
f 10/13/5 12/14/5 11/15/5
f 12/16/6 14/17/6 13/18/6
f 14/19/7 16/20/7 15/21/7
f 16/22/8 18/23/8 17/24/8
f 18/25/9 20/26/9 19/27/9
f 20/28/10 22/29/10 21/30/10
f 22/31/11 24/32/11 23/33/11
f 24/34/12 26/35/12 25/36/12
f 26/37/13 28/38/13 27/39/13
f 28/40/14 30/41/14 29/42/14
f 30/43/15 32/44/15 31/45/15
f 32/46/16 34/47/16 33/48/16
f 33/49/17 34/50/17 36/51/17
f 36/52/18 38/53/18 37/54/18
f 38/55/19 40/56/19 39/57/19
f 40/58/20 42/59/20 41/60/20
f 42/61/21 44/62/21 43/63/21
f 44/64/22 46/65/22 45/66/22
f 46/67/23 48/68/23 47/69/23
f 48/70/24 50/71/24 49/72/24
f 50/73/25 52/74/25 51/75/25
f 52/76/26 54/77/26 53/78/26
f 54/79/27 56/80/27 55/81/27
f 56/82/28 58/83/28 57/84/28
f 58/85/29 60/86/29 59/87/29
f 60/88/30 62/89/30 61/90/30
f 20/91/31 48/92/31 22/93/31
f 64/94/32 2/95/32 1/96/32
f 62/97/33 64/98/33 63/99/33
f 23/100/34 43/101/34 21/102/34
f 3/103/35 1/1/35 4/3/35
f 5/104/36 3/4/36 6/6/36
f 5/105/3 6/7/3 7/9/3
f 7/106/4 8/10/4 9/12/4
f 9/107/5 10/13/5 11/15/5
f 11/108/6 12/16/6 13/18/6
f 13/109/7 14/19/7 15/21/7
f 15/110/8 16/22/8 17/24/8
f 17/111/9 18/25/9 19/27/9
f 19/112/10 20/28/10 21/30/10
f 21/113/11 22/31/11 23/33/11
f 23/114/12 24/34/12 25/36/12
f 25/115/13 26/37/13 27/39/13
f 27/116/14 28/40/14 29/42/14
f 29/117/15 30/43/15 31/45/15
f 31/118/37 32/46/37 33/48/37
f 35/119/38 33/49/38 36/51/38
f 35/120/18 36/52/18 37/54/18
f 37/121/19 38/55/19 39/57/19
f 39/122/20 40/58/20 41/60/20
f 41/123/21 42/61/21 43/63/21
f 43/124/22 44/64/22 45/66/22
f 45/125/23 46/67/23 47/69/23
f 47/126/24 48/70/24 49/72/24
f 49/127/25 50/73/25 51/75/25
f 51/128/26 52/76/26 53/78/26
f 53/129/27 54/79/27 55/81/27
f 55/130/28 56/82/28 57/84/28
f 57/131/29 58/85/29 59/87/29
f 59/132/30 60/88/30 61/90/30
f 60/133/31 8/134/31 6/135/31
f 6/135/39 4/136/39 2/137/39
f 6/135/31 64/138/31 62/139/31
f 8/134/31 60/133/31 58/140/31
f 14/141/31 12/142/31 54/143/31
f 18/144/31 52/145/31 50/146/31
f 22/93/31 48/92/31 46/147/31
f 26/148/31 44/149/31 42/150/31
f 30/151/31 40/152/31 38/153/31
f 36/154/40 34/155/40 32/156/40
f 32/156/31 38/153/31 36/154/31
f 24/157/31 46/147/31 44/149/31
f 16/158/31 54/143/31 52/145/31
f 6/135/31 62/139/31 60/133/31
f 64/138/31 6/135/31 2/137/31
f 58/140/31 56/159/31 10/160/31
f 54/143/31 16/158/31 14/141/31
f 50/146/31 20/91/31 18/144/31
f 46/147/31 24/157/31 22/93/31
f 42/150/31 28/161/31 26/148/31
f 38/153/31 32/156/31 30/151/31
f 30/151/31 28/161/31 40/152/31
f 54/143/31 12/142/31 56/159/31
f 58/140/31 10/160/31 8/134/31
f 52/145/31 18/144/31 16/158/31
f 44/149/31 26/148/31 24/157/31
f 28/161/31 42/150/31 40/152/31
f 56/159/31 12/142/31 10/160/31
f 50/146/31 48/92/31 20/91/31
f 63/162/32 64/94/32 1/96/32
f 61/163/33 62/97/33 63/99/33
f 3/164/34 63/165/34 1/166/34
f 5/167/34 59/168/34 61/169/34
f 9/170/34 55/171/34 57/172/34
f 13/173/34 51/174/34 53/175/34
f 17/176/34 47/177/34 49/178/34
f 21/102/34 43/101/34 45/179/34
f 25/180/34 39/181/34 41/182/34
f 29/183/34 35/184/34 37/185/34
f 35/184/34 31/186/34 33/187/34
f 37/185/34 27/188/34 29/183/34
f 41/182/34 23/100/34 25/180/34
f 45/179/34 19/189/34 21/102/34
f 49/178/34 15/190/34 17/176/34
f 53/175/34 11/191/34 13/173/34
f 57/172/34 7/192/34 9/170/34
f 61/169/34 3/164/34 5/167/34
f 3/164/34 61/169/34 63/165/34
f 9/170/34 11/191/34 55/171/34
f 17/176/34 19/189/34 47/177/34
f 25/180/34 27/188/34 39/181/34
f 35/184/34 29/183/34 31/186/34
f 41/182/34 43/101/34 23/100/34
f 49/178/34 51/174/34 15/190/34
f 57/172/34 59/168/34 7/192/34
f 5/167/34 7/192/34 59/168/34
f 47/177/34 19/189/34 45/179/34
f 37/185/34 39/181/34 27/188/34
f 15/190/34 51/174/34 13/173/34
f 55/171/34 11/191/34 53/175/34
