# Blender v2.73 (sub 0) OBJ File: 'skyboxRegularNormalsUpdated1237.blend'
# www.blender.org
mtllib skyboxRegularNormalsUpdated1237.mtl
o Cube
v 0.500000 -0.500000 -0.500000
v 0.500000 -0.500000 0.500000
v -0.500000 -0.500000 0.500000
v -0.500000 -0.500000 -0.500000
v 0.500000 0.500000 -0.499999
v 0.499999 0.500000 0.500000
v -0.500000 0.500000 0.500000
v -0.500000 0.500000 -0.500000
vt 0.463129 0.026148
vt 0.462569 0.344023
vt 0.283660 0.344023
vt 0.284780 0.979772
vt 0.284220 0.661897
vt 0.462512 0.662327
vt 0.642038 0.661897
vt 0.104750 0.661897
vt 0.106430 0.343027
vt 0.642038 0.344023
vt 0.822068 0.343027
vt 0.821507 0.662893
vt 0.284220 0.025152
vt 0.462503 0.980358
vn 0.000000 -1.000000 0.000000
vn 0.000000 1.000000 0.000000
vn 1.000000 0.000000 0.000000
vn -0.000000 0.000000 1.000000
vn -1.000000 -0.000000 -0.000000
vn 0.000000 0.000000 -1.000000
usemtl Material
s off
f 1/1/1 2/2/1 3/3/1
f 8/4/2 7/5/2 6/6/2
f 5/7/3 6/6/3 2/2/3
f 6/6/4 7/5/4 3/3/4
f 7/5/5 8/8/5 4/9/5
f 1/10/6 4/11/6 8/12/6
f 4/13/1 1/1/1 3/3/1
f 5/14/2 8/4/2 6/6/2
f 1/10/3 5/7/3 2/2/3
f 2/2/4 6/6/4 3/3/4
f 3/3/5 7/5/5 4/9/5
f 5/7/6 1/10/6 8/12/6
