# Blender v2.73 (sub 0) OBJ File: 'skyboxRegularNormalsUpdated1037.blend'
# www.blender.org
mtllib skyboxRegularNormalsUpdated1043.mtl
o Cube
v 0.500000 -0.500000 -0.500000
v 0.500000 -0.500000 0.500000
v -0.500000 -0.500000 0.500000
v -0.500000 -0.500000 -0.500000
v 0.500000 0.500000 -0.499999
v 0.499999 0.500000 0.500000
v -0.500000 0.500000 0.500000
v -0.500000 0.500000 -0.500000
vt 0.500040 0.001675
vt 0.499455 0.334048
vt 0.312386 0.334048
vt 0.312971 0.000634
vt 0.499386 0.999406
vt 0.313557 0.998793
vt 0.312971 0.666421
vt 0.499395 0.666870
vt 0.687109 0.334048
vt 0.687109 0.666420
vt 0.125317 0.666421
vt 0.127074 0.333007
vt 0.875350 0.333007
vt 0.874764 0.667462
vn 0.000000 -1.000000 0.000000
vn 0.000000 1.000000 0.000000
vn 1.000000 0.000000 0.000000
vn -0.000000 -0.000000 1.000000
vn -1.000000 -0.000000 -0.000000
vn 0.000000 0.000000 -1.000000
usemtl Material
s off
f 1/1/1 2/2/1 3/3/1 4/4/1
f 5/5/2 8/6/2 7/7/2 6/8/2
f 1/9/3 5/10/3 6/8/3 2/2/3
f 2/2/4 6/8/4 7/7/4 3/3/4
f 3/3/5 7/7/5 8/11/5 4/12/5
f 5/10/6 1/9/6 4/13/6 8/14/6
