# Blender v2.73 (sub 0) OBJ File: 'skyboxRegularNormalsUpdated1037.blend'
# www.blender.org
mtllib skyboxRegularNormalsUpdated1045.mtl
o Cube
v 0.500000 -0.500000 -0.500000
v 0.500000 -0.500000 0.500000
v -0.500000 -0.500000 0.500000
v -0.500000 -0.500000 -0.500000
v 0.500000 0.500000 -0.499999
v 0.499999 0.500000 0.500000
v -0.500000 0.500000 0.500000
v -0.500000 0.500000 -0.500000
vt 0.500040 0.001675
vt 0.499455 0.334048
vt 0.312386 0.334048
vt 0.313557 0.998793
vt 0.312971 0.666421
vt 0.499395 0.666870
vt 0.687109 0.666420
vt 0.125317 0.666421
vt 0.127074 0.333007
vt 0.687109 0.334048
vt 0.875350 0.333007
vt 0.874764 0.667462
vt 0.312971 0.000634
vt 0.499386 0.999406
vn 0.000000 -1.000000 0.000000
vn 0.000000 1.000000 0.000000
vn 1.000000 0.000000 0.000000
vn -0.000000 0.000000 1.000000
vn -1.000000 -0.000000 -0.000000
vn 0.000000 0.000000 -1.000000
usemtl Material
s off
f 1/1/1 2/2/1 3/3/1
f 8/4/2 7/5/2 6/6/2
f 5/7/3 6/6/3 2/2/3
f 6/6/4 7/5/4 3/3/4
f 7/5/5 8/8/5 4/9/5
f 1/10/6 4/11/6 8/12/6
f 4/13/1 1/1/1 3/3/1
f 5/14/2 8/4/2 6/6/2
f 1/10/3 5/7/3 2/2/3
f 2/2/4 6/6/4 3/3/4
f 3/3/5 7/5/5 4/9/5
f 5/7/6 1/10/6 8/12/6
